<svg viewBox="0 0 512 512" xmlns="http://www.w3.org/2000/svg">
      <defs>
        <linearGradient id="b6" x1="0" y1="0" x2="1" y2="1"><stop offset="0%" stop-color="#8DB4C8"/><stop offset="100%" stop-color="#6B8FA3"/></linearGradient>
      </defs>
      <rect width="512" height="512" rx="112" fill="url(#b6)"/>
      <!-- Background blobs -->
      <circle cx="160" cy="180" r="80" fill="#F5F1EB" opacity="0.12"/>
      <circle cx="380" cy="340" r="100" fill="#2C3E50" opacity="0.08"/>
      <!-- Glass window -->
      <rect x="80" y="108" width="352" height="304" rx="20" fill="#FFFFFF" opacity="0.2" stroke="#FFFFFF" stroke-width="1.5" stroke-opacity="0.3"/>
      <!-- Dots -->
      <circle cx="112" cy="138" r="6.5" fill="#FFFFFF" opacity="0.6"/>
      <circle cx="132" cy="138" r="6.5" fill="#FFFFFF" opacity="0.4"/>
      <circle cx="152" cy="138" r="6.5" fill="#FFFFFF" opacity="0.25"/>
      <rect x="184" y="130" width="140" height="16" rx="8" fill="#FFFFFF" opacity="0.1"/>
      <line x1="80" y1="162" x2="432" y2="162" stroke="#FFFFFF" stroke-width="1" opacity="0.15"/>
      <!-- Cards (glass too) -->
      <rect x="104" y="182" width="144" height="100" rx="14" fill="#FFFFFF" opacity="0.15" stroke="#FFFFFF" stroke-width="1" stroke-opacity="0.2"/>
      <rect x="264" y="182" width="144" height="100" rx="14" fill="#FFFFFF" opacity="0.1" stroke="#FFFFFF" stroke-width="1" stroke-opacity="0.15"/>
      <!-- Thumbnails -->
      <rect x="118" y="196" width="116" height="48" rx="8" fill="#FFFFFF" opacity="0.12"/>
      <rect x="278" y="196" width="116" height="48" rx="8" fill="#FFFFFF" opacity="0.08"/>
      <!-- Labels -->
      <rect x="118" y="256" width="64" height="7" rx="3.5" fill="#FFFFFF" opacity="0.45"/>
      <rect x="118" y="269" width="40" height="5" rx="2.5" fill="#FFFFFF" opacity="0.25"/>
      <rect x="278" y="256" width="56" height="7" rx="3.5" fill="#FFFFFF" opacity="0.35"/>
      <!-- Bottom hints -->
      <rect x="104" y="298" width="96" height="68" rx="12" fill="#FFFFFF" opacity="0.06"/>
      <rect x="212" y="298" width="96" height="68" rx="12" fill="#FFFFFF" opacity="0.05"/>
      <rect x="320" y="298" width="88" height="68" rx="12" fill="#FFFFFF" opacity="0.04"/>
    </svg>